<svg width="17" height="20" viewBox="0 0 17 20" fill="none" xmlns="http://www.w3.org/2000/svg">
<path d="M16.5278 5.5C16.8347 5.5 17.059 5.07891 16.9852 4.64492L16.2769 0.519922C16.2238 0.214844 16.0349 0 15.8194 0H12.9005L13.6561 5.5H16.5278ZM8.02778 0H5.06163L4.30608 5.5H8.02778V0ZM11.9384 0H8.97222V5.5H12.6939L11.9384 0ZM0.472222 5.5H3.34392L4.09948 0H1.18056C0.965104 0 0.776215 0.214844 0.72309 0.519922L0.0147569 4.64492C-0.0590278 5.07891 0.165278 5.5 0.472222 5.5ZM16.5278 8.25H15.9375L16.0556 6.875H0.944444L1.0625 8.25H0.472222C0.2125 8.25 0 8.55937 0 8.9375V10.3125C0 10.6906 0.2125 11 0.472222 11H1.29861L1.88889 17.875V18.5625C1.88889 18.9406 2.10139 19.25 2.36111 19.25H3.30556C3.56528 19.25 3.77778 18.9406 3.77778 18.5625V17.875H13.2222V18.5625C13.2222 18.9406 13.4347 19.25 13.6944 19.25H14.6389C14.8986 19.25 15.1111 18.9406 15.1111 18.5625V17.875L15.7014 11H16.5278C16.7875 11 17 10.6906 17 10.3125V8.9375C17 8.55937 16.7875 8.25 16.5278 8.25Z" fill="#E75248"/>
</svg>
