<svg width="28" height="28" viewBox="0 0 28 28"   xmlns="http://www.w3.org/2000/svg">
<path d="M27.4865 12.7595L15.2403 0.513508C14.5556 -0.171169 13.4449 -0.171169 12.7597 0.513508L0.513516 12.7595C-0.171172 13.4447 -0.171172 14.5549 0.513516 15.2401L12.7597 27.4861C13.4444 28.1713 14.5551 28.1713 15.2403 27.4861L27.4865 15.2401C28.1712 14.5549 28.1712 13.4447 27.4865 12.7595ZM21.9641 13.4464L17.3589 17.6972C17.0789 17.9558 16.6245 17.7573 16.6245 17.3756V14.4373H11.3745V17.9372C11.3745 18.179 11.1787 18.3747 10.937 18.3747H9.18695C8.94524 18.3747 8.74945 18.179 8.74945 17.9372V13.5623C8.74945 12.596 9.53313 11.8123 10.4995 11.8123H16.6245V8.87401C16.6245 8.49285 17.0784 8.29379 17.3589 8.55245L21.9641 12.8033C22.1517 12.9766 22.1517 13.273 21.9641 13.4464Z"  />
</svg>
