<svg width="48" height="48" viewBox="0 0 48 48"   xmlns="http://www.w3.org/2000/svg">
<circle cx="24" cy="24" r="23.5"   stroke="white"/>
<path d="M24.4469 12.2416C24.4757 11.7337 24.763 11.0273 25.0858 10.6718C26.3114 9.32171 28.1108 10.1072 28.4242 12.1292C28.5439 12.8998 28.9895 13.2638 30.1481 13.5367C34.654 14.5986 38.9694 19.557 39.0426 23.7563L39.0631 24.9272H26.4409H13.8187L13.9961 23.2241L14.174 21.5211H11.7166C10.3653 21.5211 9.25974 21.3295 9.25974 21.0953C9.25974 20.8373 11.2868 20.6695 14.4096 20.6695C17.7243 20.6695 19.4571 20.8211 19.2718 21.0953C19.1135 21.3295 18.1584 21.5211 17.1488 21.5211C15.8752 21.5211 15.3135 21.7058 15.3135 22.1248C15.3135 22.4569 15.1864 23.0317 15.0309 23.4021C14.778 24.005 15.9492 24.0756 26.2071 24.0756H37.666V22.8818C37.666 20.9433 35.4969 17.4802 33.4838 16.2046C29.838 13.8948 26.8735 13.4082 22.9767 14.4802C21.731 14.823 20.6115 15.0116 20.4886 14.8992C20.089 14.5335 21.0986 13.9323 22.7644 13.5444C23.9695 13.2638 24.4077 12.9245 24.4469 12.2416Z" fill="white"/>
<path d="M12.9851 13.4316C11.433 13.4316 10.1911 13.2426 10.1911 13.0058C10.1911 12.7691 11.433 12.5801 12.9851 12.5801C14.5372 12.5801 15.7792 12.7691 15.7792 13.0058C15.7792 13.2426 14.5372 13.4316 12.9851 13.4316Z" fill="white"/>
<path d="M33.0498 18.6101C33.9588 20.1625 33.1373 19.9002 30.9193 17.9289C29.7146 16.8585 29.0375 15.9862 29.411 15.9862C30.2897 15.9862 32.4081 17.5138 33.0498 18.6101Z" fill="white"/>
<path d="M14.4134 17.2634C13.3717 17.2634 12.5195 17.0719 12.5195 16.8377C12.5195 16.5873 14.1493 16.4119 16.4777 16.4119C18.8061 16.4119 20.436 16.5873 20.436 16.8377C20.436 17.0719 19.8148 17.2634 19.0552 17.2634C18.1514 17.2634 17.5027 17.5572 17.1762 18.115C16.902 18.5833 16.4614 18.9665 16.1969 18.9665C15.9282 18.9665 15.8467 18.591 16.0121 18.115C16.2747 17.3588 16.0959 17.2634 14.4134 17.2634Z" fill="white"/>
<path d="M6.90388 21.5211C6.40654 21.5211 6 21.3295 6 21.0953C6 20.8611 6.53645 20.6695 7.19166 20.6695C7.86736 20.6695 8.259 20.8539 8.09554 21.0953C7.93721 21.3295 7.40122 21.5211 6.90388 21.5211Z" fill="white"/>
<path d="M15.3135 27.056C13.1547 27.056 12.1805 26.6562 12.8496 26.0448C13.3623 25.5756 39.9944 25.9413 40 26.4173C40.0028 26.6515 38.9024 26.9095 37.5552 26.9908C35.1472 27.1364 35.0531 27.1939 32.1151 30.319C29.7993 32.7833 28.1574 34.0206 24.8268 35.8126C22.4626 37.0848 20.2981 38.1258 20.0164 38.1258C18.7796 38.1258 19.8055 37.3466 23.5924 35.4103C26.5005 33.9231 28.536 32.4721 30.76 30.3011C33.3338 27.7883 33.7101 27.2454 32.9566 27.1309C32.4299 27.0513 30.8415 27.8125 29.1814 28.9404C27.6046 30.0116 25.8439 30.8878 25.2683 30.8878C23.2668 30.8878 21.7971 30.0623 21.1056 28.5487C20.7252 27.7159 20.0909 27.056 19.6713 27.056C19.0399 27.056 18.9677 27.391 19.222 29.1443C19.4092 30.4357 19.3146 31.6546 18.9742 32.3375C18.2981 33.6949 17.4338 33.8188 17.9493 32.4844C18.34 31.4728 18.265 28.0595 17.8384 27.4281C17.7001 27.2233 16.5639 27.056 15.3135 27.056Z" fill="white"/>
<path d="M13.6054 34.3212C11.6049 35.0164 11.2724 34.1896 13.2413 33.416C14.2532 33.0183 15.2115 32.814 15.3713 32.9613C15.6479 33.2163 18.5733 40.0238 18.5733 40.4121C18.5733 40.6194 15.8602 41.5319 15.2442 41.5319C14.3403 41.5319 14.9363 40.6761 16.0121 40.4296C17.451 40.0992 17.4501 40.0379 15.9729 36.6641C14.8255 34.0436 14.7161 33.935 13.6054 34.3212Z" fill="white"/>
</svg>
