<svg width="28" height="29" viewBox="0 0 28 29" fill="none" xmlns="http://www.w3.org/2000/svg">
	<path
		d="M25.2219 7.39404H4.375C3.89156 7.39404 3.5 7.00248 3.5 6.51904C3.5 6.03561 3.89156 5.64404 4.375 5.64404H25.375C25.8584 5.64404 26.25 5.25248 26.25 4.76904C26.25 3.31928 25.0748 2.14404 23.625 2.14404H3.5C1.5668 2.14404 0 3.71084 0 5.64404V23.144C0 25.0772 1.5668 26.644 3.5 26.644H25.2219C26.7542 26.644 28 25.4666 28 24.019V10.019C28 8.57147 26.7542 7.39404 25.2219 7.39404ZM22.75 18.769C21.7837 18.769 21 17.9854 21 17.019C21 16.0527 21.7837 15.269 22.75 15.269C23.7163 15.269 24.5 16.0527 24.5 17.019C24.5 17.9854 23.7163 18.769 22.75 18.769Z"
		fill="#666666" />
</svg>
