<svg width="48" height="48" viewBox="0 0 48 48" fill="none" xmlns="http://www.w3.org/2000/svg">
<circle cx="24" cy="24" r="23.5"   stroke="white"/>
<path fill-rule="evenodd" clip-rule="evenodd" d="M26.8877 12.0676C26.1253 12.2528 25.4646 12.7935 25.1317 13.5045C24.9738 13.8418 24.9398 13.9925 24.9211 14.4388C24.8848 15.3032 24.7155 15.1938 26.9224 15.7316C29.1256 16.2686 29.2357 16.288 29.446 16.1764C29.6167 16.0859 30.0404 15.2555 29.9547 15.1795C29.9276 15.1554 29.5063 15.0523 29.0186 14.9504C28.4975 14.8415 28.0708 14.7196 27.9839 14.6548C27.7472 14.4785 27.635 14.2262 27.5932 13.7773C27.5471 13.2809 27.4404 13.3436 28.6343 13.1654C29.1058 13.095 29.5048 13.0246 29.5211 13.0089C29.5834 12.9489 28.9729 12.4576 28.6202 12.2841C28.0504 12.0037 27.4564 11.9295 26.8877 12.0676ZM25.4711 16.0574C25.0148 16.1774 24.6389 16.5086 24.4349 16.9705C24.322 17.2261 24.2845 17.6217 24.0713 20.8045C23.8396 24.263 23.8363 24.3605 23.9377 24.6286C24.0367 24.8904 24.3311 25.2357 24.5851 25.3879C24.677 25.4431 24.0243 25.4591 21.5838 25.4619L18.465 25.4653V26.1157V26.7661H22.8106H27.1562V26.1672V25.5683L27.437 25.6022C27.5915 25.6208 28.1901 25.6824 28.7673 25.7391C29.3445 25.7958 29.8167 25.8647 29.8167 25.8922C29.8167 25.9196 29.4842 26.8758 29.0777 28.0171C28.6712 29.1583 28.3386 30.1844 28.3386 30.2973C28.3386 30.792 28.7694 31.1862 29.2409 31.123C29.3731 31.1053 29.5501 31.0413 29.6342 30.9809C29.8124 30.853 31.5373 27.4968 31.8208 26.7264C32.1809 25.7482 32.2877 24.5392 32.0563 24.0612C31.8145 23.5617 31.7783 23.551 29.1927 23.2113C27.9263 23.0448 26.8679 22.8884 26.8409 22.8636C26.7913 22.8183 27.0693 20.3248 27.1462 20.1261C27.1805 20.0373 27.273 20.1066 27.6984 20.54C27.9795 20.8263 28.2851 21.1325 28.3776 21.2203C28.5278 21.3627 28.7435 21.4215 30.3849 21.7672C31.3964 21.9801 32.3009 22.1543 32.395 22.1542C32.6224 22.1539 32.9232 21.9639 33.0723 21.7263C33.2561 21.4333 33.212 20.8595 32.9875 20.6252C32.7526 20.38 32.5634 20.31 30.881 19.8458C30.0517 19.6171 29.3435 19.3977 29.3071 19.3584C29.2708 19.3191 28.7535 18.675 28.1577 17.9271C26.9932 16.4653 26.8939 16.3577 26.5396 16.1728C26.2869 16.0409 25.7532 15.9832 25.4711 16.0574ZM17.046 17.5305C16.6426 17.5775 16.5781 17.6893 16.4251 18.607C16.3735 18.9159 16.3174 19.2152 16.3004 19.2721C16.272 19.3672 16.1452 19.3756 14.7363 19.3756C13.2818 19.3756 13.1969 19.3817 13.0848 19.4939C12.9266 19.652 12.9357 19.8232 13.1117 19.9991L13.2567 20.1442H14.712C16.0695 20.1442 16.1652 20.1511 16.1381 20.2477C16.1221 20.3046 16.0761 20.544 16.036 20.7798L15.9629 21.2084H13.6984C11.445 21.2084 11.4333 21.2091 11.3133 21.3379C11.154 21.509 11.1612 21.6552 11.3379 21.8319L11.483 21.977H13.6438C15.333 21.977 15.8044 21.9932 15.8043 22.051C15.8041 22.122 15.6008 23.2252 15.5373 23.4995L15.5066 23.6325H12.5854H9.66416L9.54165 23.7883C9.38285 23.9901 9.38716 24.079 9.56424 24.256L9.70933 24.4011H12.5795C14.9236 24.4011 15.4497 24.4155 15.4497 24.4795C15.4497 24.5226 15.5183 24.6224 15.6022 24.7012L15.7548 24.8445L18.9279 24.8587C20.9239 24.8676 22.1811 24.8508 22.3167 24.8133C22.4353 24.7805 22.5715 24.694 22.6193 24.6209C22.7542 24.4151 23.8807 18.106 23.8234 17.8776C23.7391 17.5418 23.793 17.5473 20.3549 17.5295C18.6163 17.5205 17.1273 17.521 17.046 17.5305ZM34.7874 20.6246C34.0256 20.7513 33.394 20.8633 33.3839 20.8734C33.3738 20.8835 33.4038 21.2623 33.4506 21.7152C33.7261 24.3808 33.7245 26.7478 33.4463 28.1555C33.2944 28.9235 32.9701 29.8506 32.7155 30.2445C32.1239 31.16 31.205 31.6945 29.9645 31.845C29.1198 31.9474 26.6536 31.9297 26.2792 31.8186C25.6711 31.638 25.304 31.144 25.3022 30.5042C25.3012 30.1485 25.3298 30.0755 25.9922 28.7427C26.3722 27.9779 26.6832 27.3239 26.6832 27.2893C26.6832 27.2452 25.5322 27.2362 22.8254 27.2592L18.9676 27.2919L18.7144 27.8124C18.5751 28.0986 18.4421 28.3671 18.4188 28.409C18.3954 28.451 18.1635 28.5839 17.9033 28.7043L17.4303 28.9233L14.0994 28.9532L10.7684 28.9832L10.6518 29.1273C10.5203 29.2898 10.5443 29.5257 10.7048 29.6483C10.7789 29.705 11.4283 29.7222 13.4803 29.7222C14.9537 29.7222 16.1592 29.7337 16.1592 29.7476C16.1592 29.7616 15.9978 29.9412 15.8006 30.1467C15.4522 30.5098 14.8847 31.2997 14.7357 31.629L14.6621 31.7916H13.1048C11.6263 31.7916 11.5416 31.7975 11.4293 31.9098C11.2777 32.0614 11.2786 32.2666 11.4316 32.4308C11.549 32.5568 11.5883 32.5602 12.9456 32.5602C14.1291 32.5602 14.3341 32.5729 14.3066 32.6447C14.2887 32.6911 14.2572 32.8198 14.2364 32.9305L14.1986 33.1319L17.7064 33.1712C19.6357 33.1927 23.3161 33.2106 25.885 33.2108C28.4539 33.2109 30.8518 33.2282 31.2136 33.249L31.8714 33.2869L31.9005 33.6942C31.9166 33.9183 31.9452 34.1171 31.9641 34.136C31.983 34.1549 32.4986 33.9032 33.11 33.5766C37.7292 31.1088 39.9563 29.8999 39.9725 29.8514C40.0009 29.7661 39.239 29.2128 38.8133 29.0096C38.2414 28.7366 37.5279 28.5874 36.9013 28.6097L36.374 28.6285L36.1727 27.9781C35.5895 26.0941 34.6649 23.0223 34.6649 22.9688C34.6649 22.8831 35.569 22.9455 35.5983 23.0332C35.6106 23.0701 35.7244 23.1004 35.8511 23.1004C36.125 23.1004 36.0934 23.1984 36.2603 21.8292C36.3276 21.2764 36.3976 20.7244 36.4158 20.6024C36.4568 20.3281 36.5794 20.3265 34.7874 20.6246ZM8.14657 26.6734C8.06604 26.7539 8.00012 26.8494 8.00012 26.8855C8.00012 26.9766 8.12257 27.2005 8.20114 27.2529C8.23691 27.2768 9.92241 27.2968 11.9466 27.2973C15.5488 27.2982 15.6295 27.2957 15.7453 27.1799C15.8938 27.0314 15.8955 26.8777 15.7506 26.6987L15.6375 26.5591L11.9652 26.543L8.29302 26.527L8.14657 26.6734ZM21.4301 29.4086C22.2487 29.7925 22.8743 30.6349 22.9392 31.441L22.9697 31.8211L22.7233 31.408C22.1691 30.4796 21.6102 29.9476 20.623 29.409L20.2091 29.1832L20.6319 29.2079C20.9401 29.2259 21.1565 29.2804 21.4301 29.4086ZM37.9187 31.5832C37.1328 32.0156 37.1248 32.0221 37.2979 32.0854C37.7182 32.239 37.794 32.2859 38.0467 32.5487C38.3762 32.8914 38.5081 33.2208 38.5073 33.6995C38.5059 34.6015 37.793 35.2992 36.8706 35.3012C35.8152 35.3036 34.9844 34.1849 35.3221 33.2163C35.3583 33.1123 35.3751 33.0142 35.3594 32.9985C35.3436 32.9827 34.988 33.1544 34.5691 33.3799C33.7042 33.8455 33.708 33.8397 33.8679 34.4569C34.0983 35.3458 34.6636 36.0387 35.5016 36.4592C37.2843 37.3537 39.3881 36.3994 39.9296 34.4506C39.97 34.3051 40.0017 33.9466 40.0001 33.654C39.995 32.7682 39.7181 32.1046 39.0809 31.4516C38.9143 31.2809 38.7638 31.1421 38.7464 31.1432C38.729 31.1442 38.3565 31.3422 37.9187 31.5832ZM15.4754 33.9625C15.656 35.252 16.3953 36.1979 17.5502 36.6171C18.3596 36.9109 19.2017 36.8559 19.9981 36.4573C20.9614 35.9752 21.6553 34.9688 21.6794 34.0187L21.6872 33.7131H20.9816H20.276L20.2048 33.9924C19.9987 34.8 19.3934 35.2969 18.6128 35.2993C17.8152 35.3017 17.1278 34.7318 16.9961 33.9588L16.9542 33.7131L16.195 33.6965L15.4357 33.6799L15.4754 33.9625Z" fill="white"/>
</svg>
