<svg width="48" height="48" viewBox="0 0 48 48" fill="none" xmlns="http://www.w3.org/2000/svg">
<circle cx="24" cy="24" r="23.5"  stroke="white"/>
<g clip-path="url(#clip0_1768_3897)">
<path fill-rule="evenodd" clip-rule="evenodd" d="M18.6934 11H28.4197C29.1679 11 29.8413 11.2986 30.3151 11.7963C30.789 12.294 31.1132 12.941 31.1132 13.6876V35.3373C31.1132 36.0839 30.8139 36.7558 30.3151 37.2286C29.8413 37.7014 29.1679 38.0249 28.4197 38.0249H18.6934C17.9453 38.0249 17.2719 37.7263 16.7981 37.2286C16.2993 36.7558 16 36.0839 16 35.3373V13.6876C16 12.941 16.2993 12.2691 16.7981 11.7963C17.2719 11.2986 17.9453 11 18.6934 11ZM23.5316 35.0885C24.1302 35.0885 24.629 35.5862 24.629 36.1834C24.629 36.7806 24.1302 37.2783 23.5316 37.2783C22.9331 37.2783 22.4343 36.7806 22.4343 36.1834C22.4343 35.5862 22.9331 35.0885 23.5316 35.0885ZM16.7731 34.2424H30.3151V14.3594H16.7731V34.2424Z" fill="white"/>
<path fill-rule="evenodd" clip-rule="evenodd" d="M25.4021 27.6233C24.9532 28.121 24.4295 28.544 23.8559 28.9173C23.781 28.9671 23.6813 28.9671 23.6065 28.9173C22.7336 28.3698 22.0103 27.6979 21.4367 27.0012C20.6387 26.0058 20.1648 24.9357 19.9903 23.8657C19.8157 22.7956 19.9903 21.7754 20.514 20.9293C20.7135 20.6058 20.9878 20.3072 21.312 20.0334C22.0602 19.4362 22.9082 19.1127 23.781 19.1376C24.604 19.1376 25.427 19.4611 26.1253 20.0832C26.3747 20.3072 26.5742 20.556 26.7488 20.8297C27.3224 21.7754 27.4471 22.9698 27.1977 24.1892C26.9234 25.4085 26.2999 26.6279 25.4021 27.6233ZM23.6065 21.0537C24.629 21.0537 25.452 21.8749 25.452 22.8952C25.452 23.9154 24.629 24.7366 23.6065 24.7366C22.584 24.7366 21.761 23.9154 21.761 22.8952C21.761 21.8749 22.584 21.0537 23.6065 21.0537Z" fill="white"/>
</g>
<defs>
<clipPath id="clip0_1768_3897">
<rect width="15.0882" height="27" fill="white" transform="translate(16 11)"/>
</clipPath>
</defs>
</svg>
